<svg width="199" height="58" viewBox="0 0 199 58" fill="none" xmlns="http://www.w3.org/2000/svg">
<path d="M9.07397 13.3047V29.8745C9.07397 31.5315 9.48164 32.8071 10.297 33.7014C11.1123 34.5956 12.309 35.0427 13.8871 35.0427C15.4652 35.0427 16.6751 34.5956 17.5167 33.7014C18.3584 32.8071 18.7792 31.5315 18.7792 29.8745V13.3047H25.5255V29.8351C25.5255 32.3074 24.9995 34.3984 23.9474 36.1079C22.8953 37.8175 21.4751 39.1063 19.6866 39.9742C17.9244 40.8422 15.9518 41.2762 13.7688 41.2762C11.5858 41.2762 9.6263 40.8553 7.89041 40.0137C6.18082 39.1458 4.8263 37.857 3.82685 36.1474C2.8274 34.4115 2.32767 32.3074 2.32767 29.8351V13.3047H9.07397ZM43.6765 18.749C46.254 18.749 48.3055 19.5907 49.831 21.274C51.3828 22.931 52.1587 25.2192 52.1587 28.1386V41H45.4518V29.046C45.4518 27.5732 45.0705 26.429 44.3077 25.6137C43.545 24.7984 42.5192 24.3907 41.2305 24.3907C39.9417 24.3907 38.916 24.7984 38.1532 25.6137C37.3905 26.429 37.0091 27.5732 37.0091 29.046V41H30.2628V18.9858H37.0091V21.9052C37.6929 20.9321 38.6135 20.1693 39.7708 19.617C40.928 19.0384 42.2299 18.749 43.6765 18.749ZM60.2396 16.6975C59.056 16.6975 58.0829 16.3556 57.3201 15.6718C56.5837 14.9616 56.2155 14.0937 56.2155 13.0679C56.2155 12.0159 56.5837 11.1479 57.3201 10.4641C58.0829 9.75397 59.056 9.3989 60.2396 9.3989C61.3968 9.3989 62.3437 9.75397 63.0801 10.4641C63.8429 11.1479 64.2242 12.0159 64.2242 13.0679C64.2242 14.0937 63.8429 14.9616 63.0801 15.6718C62.3437 16.3556 61.3968 16.6975 60.2396 16.6975ZM63.593 18.9858V41H56.8467V18.9858H63.593ZM85.7225 36.1079H75.3861L73.7291 41H66.6672L76.688 13.3047H84.4995L94.5203 41H87.3795L85.7225 36.1079ZM83.9866 30.9003L80.5543 20.7611L77.1614 30.9003H83.9866ZM107.473 34.6877L112.246 18.9858H119.427L111.615 41H103.291L95.4792 18.9858H102.699L107.473 34.6877ZM120.925 29.9534C120.925 27.6915 121.346 25.7058 122.187 23.9962C123.055 22.2866 124.226 20.9715 125.699 20.051C127.171 19.1304 128.815 18.6701 130.63 18.6701C132.182 18.6701 133.536 18.9858 134.694 19.617C135.877 20.2482 136.785 21.0767 137.416 22.1025V18.9858H144.162V41H137.416V37.8833C136.758 38.909 135.838 39.7375 134.654 40.3688C133.497 41 132.142 41.3156 130.591 41.3156C128.802 41.3156 127.171 40.8553 125.699 39.9348C124.226 38.9879 123.055 37.6597 122.187 35.9501C121.346 34.2142 120.925 32.2153 120.925 29.9534ZM137.416 29.9929C137.416 28.3096 136.942 26.9814 135.996 26.0082C135.075 25.0351 133.944 24.5485 132.603 24.5485C131.261 24.5485 130.117 25.0351 129.17 26.0082C128.25 26.9551 127.79 28.2701 127.79 29.9534C127.79 31.6367 128.25 32.9781 129.17 33.9775C130.117 34.9507 131.261 35.4373 132.603 35.4373C133.944 35.4373 135.075 34.9507 135.996 33.9775C136.942 33.0044 137.416 31.6762 137.416 29.9929ZM155.789 11.8055V41H149.043V11.8055H155.789ZM164.071 16.6975C162.887 16.6975 161.914 16.3556 161.151 15.6718C160.415 14.9616 160.047 14.0937 160.047 13.0679C160.047 12.0159 160.415 11.1479 161.151 10.4641C161.914 9.75397 162.887 9.3989 164.071 9.3989C165.228 9.3989 166.175 9.75397 166.911 10.4641C167.674 11.1479 168.056 12.0159 168.056 13.0679C168.056 14.0937 167.674 14.9616 166.911 15.6718C166.175 16.3556 165.228 16.6975 164.071 16.6975ZM167.424 18.9858V41H160.678V18.9858H167.424ZM170.972 29.9534C170.972 27.6915 171.393 25.7058 172.234 23.9962C173.102 22.2866 174.273 20.9715 175.746 20.051C177.219 19.1304 178.862 18.6701 180.677 18.6701C182.229 18.6701 183.583 18.9858 184.741 19.617C185.924 20.2482 186.832 21.0767 187.463 22.1025V18.9858H194.209V41H187.463V37.8833C186.805 38.909 185.885 39.7375 184.701 40.3688C183.544 41 182.189 41.3156 180.638 41.3156C178.849 41.3156 177.219 40.8553 175.746 39.9348C174.273 38.9879 173.102 37.6597 172.234 35.9501C171.393 34.2142 170.972 32.2153 170.972 29.9534ZM187.463 29.9929C187.463 28.3096 186.989 26.9814 186.043 26.0082C185.122 25.0351 183.991 24.5485 182.65 24.5485C181.308 24.5485 180.164 25.0351 179.217 26.0082C178.297 26.9551 177.837 28.2701 177.837 29.9534C177.837 31.6367 178.297 32.9781 179.217 33.9775C180.164 34.9507 181.308 35.4373 182.65 35.4373C183.991 35.4373 185.122 34.9507 186.043 33.9775C186.989 33.0044 187.463 31.6762 187.463 29.9929Z" fill="black"/>
<rect x="158" y="7" width="11" height="11" rx="5.5" fill="white"/>
<rect x="55" y="7" width="11" height="11" rx="5.5" fill="white"/>
<path d="M60.5613 13.7L56.4113 16.2C56.228 16.3167 56.0363 16.3667 55.8363 16.35C55.6363 16.3333 55.4613 16.2667 55.3113 16.15C55.1613 16.0333 55.0447 15.8877 54.9613 15.713C54.878 15.5377 54.8613 15.3417 54.9113 15.125L56.0113 10.4L52.3363 7.225C52.1697 7.075 52.0657 6.904 52.0243 6.712C51.9823 6.52067 51.9947 6.33333 52.0613 6.15C52.128 5.96667 52.228 5.81667 52.3613 5.7C52.4947 5.58333 52.678 5.50833 52.9113 5.475L57.7613 5.05L59.6363 0.6C59.7197 0.4 59.849 0.25 60.0244 0.15C60.199 0.0500001 60.378 0 60.5613 0C60.7447 0 60.924 0.0500001 61.0993 0.15C61.274 0.25 61.403 0.4 61.4864 0.6L63.3614 5.05L68.2113 5.475C68.4447 5.50833 68.628 5.58333 68.7614 5.7C68.8947 5.81667 68.9947 5.96667 69.0613 6.15C69.128 6.33333 69.1407 6.52067 69.0993 6.712C69.0574 6.904 68.953 7.075 68.7864 7.225L65.1113 10.4L66.2113 15.125C66.2613 15.3417 66.2447 15.5377 66.1614 15.713C66.078 15.8877 65.9613 16.0333 65.8113 16.15C65.6614 16.2667 65.4864 16.3333 65.2864 16.35C65.0864 16.3667 64.8947 16.3167 64.7113 16.2L60.5613 13.7Z" fill="black"/>
<path d="M164.561 3.55V11.35L167.711 13.275L166.886 9.675L169.661 7.275L166.011 6.95L164.561 3.55ZM164.561 13.7L160.411 16.2C160.228 16.3167 160.036 16.3667 159.836 16.35C159.636 16.3333 159.461 16.2667 159.311 16.15C159.161 16.0333 159.045 15.8877 158.961 15.713C158.878 15.5377 158.861 15.3417 158.911 15.125L160.011 10.4L156.336 7.225C156.17 7.075 156.066 6.904 156.024 6.712C155.982 6.52067 155.995 6.33333 156.061 6.15C156.128 5.96667 156.228 5.81667 156.361 5.7C156.495 5.58333 156.678 5.50833 156.911 5.475L161.761 5.05L163.636 0.6C163.72 0.4 163.849 0.25 164.024 0.15C164.199 0.0500001 164.378 0 164.561 0C164.745 0 164.924 0.0500001 165.099 0.15C165.274 0.25 165.403 0.4 165.486 0.6L167.361 5.05L172.211 5.475C172.445 5.50833 172.628 5.58333 172.761 5.7C172.895 5.81667 172.995 5.96667 173.061 6.15C173.128 6.33333 173.141 6.52067 173.099 6.712C173.057 6.904 172.953 7.075 172.786 7.225L169.111 10.4L170.211 15.125C170.261 15.3417 170.245 15.5377 170.161 15.713C170.078 15.8877 169.961 16.0333 169.811 16.15C169.661 16.2667 169.486 16.3333 169.286 16.35C169.086 16.3667 168.895 16.3167 168.711 16.2L164.561 13.7Z" fill="black"/>
</svg>
